<?xml version="1.0"?>
<svg xmlns="http://www.w3.org/2000/svg" xmlns:xlink="http://www.w3.org/1999/xlink" xmlns:svgjs="http://svgjs.com/svgjs" version="1.1" width="512px" height="512px" x="0" y="0" viewBox="0 0 64 64" style="enable-background:new 0 0 512 512" xml:space="preserve" class=""><g><g id="Layer_51" data-name="Layer 51"><path d="M31,30H11a1,1,0,0,0-1,1V47a1,1,0,0,0,1,1H31a1,1,0,0,0,1-1V31A1,1,0,0,0,31,30Zm-1,8H22V32h8ZM20,32v6H12V32Zm-8,8h8v6H12Zm10,6V40h8v6Z" fill="#233d65" data-original="#000000" class=""/><path d="M26,18a6,6,0,1,0,6-6A6.006,6.006,0,0,0,26,18Zm5-3.858V17H28.142A4,4,0,0,1,31,14.142ZM28.142,19H31v2.858A4,4,0,0,1,28.142,19ZM33,21.858V19h2.858A4,4,0,0,1,33,21.858ZM35.858,17H33V14.142A4,4,0,0,1,35.858,17Z" fill="#233d65" data-original="#000000" class=""/><path d="M58.94,24.33a1.013,1.013,0,0,0,1.37-.37l2-3.46a1,1,0,0,0-.37-1.37L54,14.55V8a1,1,0,0,0-1-1H47a1,1,0,0,0-1,1V9.93L32.5,2.13a1.044,1.044,0,0,0-1,0l-29.44,17a1,1,0,0,0-.37,1.37l2,3.46a1.01,1.01,0,0,0,1.37.37L6,23.78V54H3a1,1,0,0,0-1,1v6a1,1,0,0,0,1,1H61a1,1,0,0,0,1-1V55a1,1,0,0,0-1-1H58V23.78ZM48,9h4v4.39l-4-2.31ZM60,56v4H4V56ZM51,30H37a1,1,0,0,0-1,1V54H8V22.63L32,8.76,56,22.63V54H52V31A1,1,0,0,0,51,30Zm-1,2V54H38V32ZM32.5,6.74a1.027,1.027,0,0,0-1,0L4.93,22.09l-1-1.72L32,4.15,60.07,20.37l-1,1.72Z" fill="#233d65" data-original="#000000" class=""/><path d="M47,44h1a1,1,0,0,0,0-2H47a1,1,0,0,0,0,2Z" fill="#233d65" data-original="#000000" class=""/></g></g></svg>
