<?xml version="1.0"?>
<svg xmlns="http://www.w3.org/2000/svg" xmlns:xlink="http://www.w3.org/1999/xlink" xmlns:svgjs="http://svgjs.com/svgjs" version="1.1" width="512px" height="512px" x="0" y="0" viewBox="0 0 512 512" style="enable-background:new 0 0 512 512" xml:space="preserve" class=""><g><g><path d="m486.306 236.616c-13.326-13.326-34.573-13.77-48.433-1.43v-84.652l15.123 8.781c6.627 3.847 15.021-.923 15.021-8.648v-50.239c0-3.564-1.896-6.858-4.979-8.648l-25.165-14.612v-67.168c0-5.523-4.478-10-10-10h-40.19c-5.522 0-10 4.477-10 10v32.22l-70.383-40.868c-3.105-1.803-6.938-1.803-10.043 0l-155.739 90.429c-3.082 1.789-4.979 5.084-4.979 8.648v50.239c0 7.693 8.355 12.516 15.021 8.648l15.121-8.78v142.025l-61.898 61.898-7.196-7.196c-3.905-3.905-10.235-3.904-14.143 0l-65.153 65.152c-4.666 4.666-3.611 12.517 2.145 15.773l145.769 82.514c3.94 2.231 8.842 1.523 11.997-1.631l33.525-33.525c3.905-3.905 3.905-10.237 0-14.143l-7.429-7.429 11.631-11.631c3.851-3.851 8.971-5.972 14.418-5.972h89.431c10.788 0 20.931-4.201 28.56-11.83l137.968-137.968c13.772-13.772 13.772-36.182 0-49.957zm-88.622-216.616h20.19v45.557l-20.19-11.723zm-241.145 86.186 145.739-84.622 145.739 84.622v27.112l-140.717-81.707c-3.095-1.797-6.925-1.81-10.043 0l-140.718 81.707zm145.74-34.384 115.595 67.12v116.17l-50.332 50.332v-114.566c0-5.522-4.478-10-10-10h-110.525c-5.522 0-10 4.478-10 10v86.491l-50.335 1.68v-140.106zm36.847 257.279c-.245 0-20.21.956-20.54.971 11.918-25.214-6.468-55.222-35.585-54.237l-25.984.867v-75.824h90.524v124.565c-.181.125-3.042 3.658-8.415 3.658zm-169.687 160.47-127.707-72.29 48.785-48.785c10.992 10.992 87.775 87.776 99.998 99.999zm302.724-217.12-137.967 137.967c-3.852 3.852-8.972 5.973-14.417 5.973h-89.431c-10.789 0-20.932 4.201-28.561 11.829l-11.631 11.631-71.23-71.23 69.622-69.624 95.12-3.174c9.404-.318 17.355 6.504 18.464 15.862 1.159 9.783-5.706 18.511-15.227 19.901l-45.365 2.169c-5.517.264-9.774 4.949-9.511 10.466.265 5.55 4.984 9.775 10.466 9.511 9.694-.464 87.129-4.166 97.103-4.643 8.235-.121 15.958-3.376 21.792-9.211 13.259-13.259 80.148-80.148 89.1-89.1 5.988-5.988 15.681-5.99 21.672-.001 5.976 5.976 5.976 15.699.001 21.674z" fill="#233d65" data-original="#000000" class=""/></g></g></svg>
